<svg width="28" height="29" viewBox="0 0 28 29" fill="none" xmlns="http://www.w3.org/2000/svg">
<path d="M14.3681 7.87526C13.0745 7.87526 11.8099 8.25887 10.7343 8.97756C9.65867 9.69626 8.82034 10.7178 8.32529 11.9129C7.83024 13.1081 7.70072 14.4232 7.95309 15.6919C8.20546 16.9607 8.8284 18.1261 9.74313 19.0409C10.6579 19.9556 11.8233 20.5785 13.0921 20.8309C14.3608 21.0833 15.6759 20.9538 16.8711 20.4587C18.0662 19.9637 19.0877 19.1253 19.8064 18.0497C20.5251 16.9741 20.9087 15.7095 20.9087 14.4159C20.9087 12.6812 20.2196 11.0176 18.993 9.79098C17.7664 8.56437 16.1028 7.87526 14.3681 7.87526ZM14.3681 18.7764C13.5057 18.7764 12.6626 18.5206 11.9455 18.0415C11.2285 17.5624 10.6696 16.8814 10.3396 16.0846C10.0095 15.2878 9.92317 14.4111 10.0914 13.5652C10.2597 12.7194 10.675 11.9424 11.2848 11.3326C11.8946 10.7228 12.6715 10.3075 13.5174 10.1393C14.3632 9.97102 15.24 10.0574 16.0367 10.3874C16.8335 10.7174 17.5145 11.2763 17.9936 11.9934C18.4728 12.7105 18.7285 13.5535 18.7285 14.4159C18.7249 15.5713 18.2644 16.6783 17.4474 17.4952C16.6304 18.3122 15.5234 18.7728 14.3681 18.7764ZM20.3637 0.789551H8.37247C6.34866 0.789551 4.40775 1.5935 2.9767 3.02455C1.54565 4.4556 0.741699 6.39651 0.741699 8.42032V20.4115C0.741699 22.4353 1.54565 24.3762 2.9767 25.8073C4.40775 27.2383 6.34866 28.0423 8.37247 28.0423H20.3637C22.3875 28.0423 24.3284 27.2383 25.7594 25.8073C27.1905 24.3762 27.9944 22.4353 27.9944 20.4115V8.42032C27.9944 6.39651 27.1905 4.4556 25.7594 3.02455C24.3284 1.5935 22.3875 0.789551 20.3637 0.789551ZM25.8142 20.4115C25.8142 21.1273 25.6732 21.8361 25.3993 22.4974C25.1254 23.1587 24.7239 23.7595 24.2178 24.2656C23.7117 24.7718 23.1108 25.1733 22.4495 25.4472C21.7882 25.7211 21.0795 25.8621 20.3637 25.8621H8.37247C7.65669 25.8621 6.94792 25.7211 6.28663 25.4472C5.62534 25.1733 5.02448 24.7718 4.51835 24.2656C4.01222 23.7595 3.61073 23.1587 3.33682 22.4974C3.0629 21.8361 2.92192 21.1273 2.92192 20.4115V8.42032C2.92192 6.97474 3.49617 5.58838 4.51835 4.5662C5.54052 3.54402 6.92689 2.96977 8.37247 2.96977H20.3637C21.0795 2.96977 21.7882 3.11075 22.4495 3.38467C23.1108 3.65858 23.7117 4.06007 24.2178 4.5662C24.7239 5.07233 25.1254 5.67319 25.3993 6.33449C25.6732 6.99578 25.8142 7.70454 25.8142 8.42032V20.4115ZM23.089 7.33021C23.089 7.65361 22.993 7.96976 22.8134 8.23866C22.6337 8.50756 22.3783 8.71714 22.0795 8.84091C21.7807 8.96467 21.452 8.99705 21.1348 8.93396C20.8176 8.87086 20.5262 8.71513 20.2976 8.48645C20.0689 8.25776 19.9131 7.96641 19.85 7.64922C19.7869 7.33202 19.8193 7.00325 19.9431 6.70446C20.0669 6.40567 20.2764 6.15029 20.5453 5.97062C20.8142 5.79095 21.1304 5.69504 21.4538 5.69504C21.8875 5.69504 22.3034 5.86732 22.61 6.17397C22.9167 6.48063 23.089 6.89654 23.089 7.33021Z" fill="#E3471D"/>
</svg>
