<svg width="22" height="23" viewBox="0 0 22 23" fill="#0c1454" xmlns="http://www.w3.org/2000/svg">
<path d="M17.3615 16.7282L22 21.3656L20.4676 22.898L15.8302 18.2596C14.1047 19.6428 11.9585 20.3951 9.74697 20.392C4.36664 20.392 0 16.0253 0 10.645C0 5.26468 4.36664 0.898041 9.74697 0.898041C15.1273 0.898041 19.4939 5.26468 19.4939 10.645C19.4971 12.8565 18.7448 15.0027 17.3615 16.7282ZM15.189 15.9246C16.5635 14.5112 17.3311 12.6165 17.328 10.645C17.328 6.45598 13.9349 3.06403 9.74697 3.06403C5.55794 3.06403 2.16599 6.45598 2.16599 10.645C2.16599 14.833 5.55794 18.226 9.74697 18.226C11.7185 18.2291 13.6131 17.4615 15.0266 16.0871L15.189 15.9246Z" fill="#333333"/>
</svg>
