<svg width="28" height="25" viewBox="0 0 28 25" fill="none" xmlns="http://www.w3.org/2000/svg">
<path d="M27.436 4.30795C27.3786 4.16965 27.2817 4.05132 27.1575 3.96774C27.0332 3.88416 26.8871 3.83903 26.7374 3.83799H22.7237C22.2276 2.92681 21.4978 2.16416 20.6094 1.62841C19.7209 1.09266 18.7058 0.803142 17.6684 0.789607C16.1097 0.78283 14.6118 1.3938 13.5025 2.48881C12.3932 3.58383 11.7629 5.07369 11.7495 6.63234V7.73738C6.36401 6.45452 1.91845 2.07247 1.86765 2.03436C1.76973 1.9377 1.64746 1.86935 1.51383 1.83656C1.3802 1.80378 1.24018 1.80779 1.10864 1.84816C0.9771 1.88854 0.858945 1.96377 0.766714 2.06588C0.674483 2.16798 0.611616 2.29316 0.584786 2.42811C-0.520253 8.47407 1.29608 12.5132 3.01079 14.8376C3.92023 16.0821 5.03739 17.1606 6.31321 18.0257C4.34446 20.4136 1.10555 21.6583 1.06745 21.671C0.959232 21.7109 0.861671 21.7752 0.782362 21.8589C0.703052 21.9426 0.644132 22.0435 0.61019 22.1537C0.574147 22.2612 0.563419 22.3756 0.578841 22.488C0.594263 22.6003 0.635418 22.7076 0.699101 22.8015C0.826117 22.992 2.07087 24.6686 6.41482 24.6686C15.2678 24.6686 22.6729 17.8224 23.3842 9.03294L27.2708 5.13355C27.381 5.03033 27.4562 4.89526 27.4858 4.74722C27.5154 4.59919 27.498 4.4456 27.436 4.30795ZM22.1013 8.15653C21.9692 8.28834 21.892 8.46538 21.8854 8.6519C21.3646 16.7809 14.5692 23.1444 6.41482 23.1444C4.6493 23.1444 3.51886 22.8396 2.84567 22.5347C4.28095 21.8108 6.63075 20.3882 8.06603 18.2289C8.12321 18.1394 8.16169 18.0392 8.17915 17.9344C8.19661 17.8297 8.1927 17.7224 8.16764 17.6192C8.14056 17.5136 8.09149 17.4149 8.02364 17.3295C7.95579 17.2442 7.87068 17.1741 7.77389 17.1239C7.74849 17.1239 5.84325 16.1331 4.19204 13.8723C2.22329 11.1795 1.44849 7.8898 1.88035 4.09202C3.73478 5.66702 7.73579 8.63919 12.3846 9.41399C12.494 9.43477 12.6067 9.43091 12.7144 9.40267C12.8221 9.37444 12.9222 9.32254 13.0074 9.25077C13.0925 9.17899 13.1606 9.08914 13.2067 8.98774C13.2527 8.88634 13.2756 8.77595 13.2737 8.6646V6.63234C13.2837 5.4813 13.7489 4.38102 14.5676 3.57185C15.3863 2.76268 16.492 2.3104 17.643 2.3138C18.4748 2.32581 19.2855 2.57636 19.979 3.03569C20.6725 3.49502 21.2196 4.1438 21.5551 4.90492C21.6131 5.04184 21.7104 5.15843 21.8348 5.23985C21.9592 5.32128 22.105 5.36386 22.2537 5.36218H24.8956L22.1013 8.15653Z" fill="#E3471D"/>
</svg>
